<?xml version="1.0" encoding="UTF-8"?>
<svg id="Layer_1" xmlns="http://www.w3.org/2000/svg" viewBox="0 0 1200 1200">
  <defs>
    <style>
      .cls-1 {
        fill: #8f86c0;
      }
    </style>
  </defs>
  <path class="cls-1" d="M602.52,992.66c-108.38-2.18-201.8-36.84-278.94-112.01-7.22-7.03-15.48-13.46-20.95-21.69-8.38-12.6-18.32-13.02-32.07-11.06-54.42,7.76-108.4,7.98-158.78-18.87-23.6-12.58-40.32-30.68-43.55-58.74-2.12-18.46,2.49-35.14,11.91-50.83,22.47-37.41,53.43-67.34,89.18-90.82,25.49-16.74,34.35-36.66,36.92-66.09,11.46-131.57,75.85-232.09,188.31-299.86,69.26-41.74,145.61-59.56,227.45-54.52,80.28,4.95,151.47,32.53,215.63,79.41,32.74,23.93,60.46,53.41,83.41,86.9,5.81,8.48,11.57,11.15,21.29,10.11,36.53-3.9,73.23-3.15,109.19,3.56,36.87,6.87,68.42,22.49,78.98,63.64,4.35,16.96.13,32.21-5.85,47.47-12.15,31.02-35.75,53.03-59.57,74.81-20.27,18.52-42.5,34.44-65.61,49.17-4.54,2.89-8.53,5.42-9.13,11.79-7.73,83.36-39.86,156.35-94.1,219.82-62.23,72.82-140,118.61-235,133.48-19.85,3.11-40.2,3.04-58.72,4.33ZM791.11,658.36c54.05-1.3,104.19-17.24,150.3-46.51,7.7-4.89,8.86-11.75,8.68-19.85-1.15-53.32-14.4-103.85-38.78-150.82-30.97-59.66-75.69-106.08-134.7-140.35-74.89-43.49-154.4-55.21-238.39-43.87-23.37,3.15-83.79,16.74-145.93,61.37-4.54,3.26-62.92,45.9-97.55,106.16-3.01,5.23-6.8,12.69-14.38,27.6,0,0-13.12,25.82-27.82,77.25-.46,1.61-2.17,7.88.57,13.1.7,1.34,1.31,1.85,1.66,2.12,4.51,3.55,9.1-.44,13.32-2.36,80.79-36.86,161.83-31.93,241.29,2.32,40.88,17.62,78.7,42.01,117.22,64.61,50.55,29.65,104.73,47.84,164.53,49.24ZM942.19,660.83c-6.55-.77-10.48,2.58-14.58,4.71-33.27,17.26-68.73,27.55-105.77,31.49-73.24,7.78-140.7-11.03-205.23-44.89-49.2-25.81-94.54-58.77-148.05-76.68-73.58-24.62-143.58-19.46-210.98,19.48-7.4,4.27-9.19,9.81-9.18,17.74.02,20.82,4.65,41.03,7.12,61.53,1.11,9.21,5.4,9.34,12.81,5.89,83.74-38.99,166.6-34.45,248.73,5.34,41.59,20.15,78.8,47.94,120.2,68.41,81.03,40.06,163.04,47.29,247.6,10.4,21.15-9.22,36.44-20.38,42.75-43.86,5.31-19.74,13.19-38.75,14.58-59.56ZM873.93,814.1c-4.85-2.44-7.34-.26-9.94.59-84.34,27.58-164.77,15.32-243.05-22.85-40.69-19.85-77.4-46.52-117.7-67-73.33-37.27-147.26-38.87-222.28-5.39-8.69,3.88-10.22,8.61-6.45,16.81,7.03,15.28,14.94,30.03,23.04,44.78,6.16,11.22,13.1,12.79,24.44,9.71,36.94-10.04,74.15-8.77,111.31-.75,50.28,10.85,93.54,36.8,136.47,63.44,40.99,25.44,83.02,48.7,131.03,57.89,15.65,2.99,31.29,12.93,47.65,5.07,49.67-23.88,91.68-57.34,125.47-102.28ZM658.91,944.86c-54.54-18.7-101.98-49.84-150.06-79.72-48.12-29.91-100.05-43.54-156.69-37.73-4.17.43-9.77.06-11.63,4.14-2.11,4.64,3.44,7.23,5.86,10.54,1.4,1.92,3.34,3.44,5.01,5.17,47.18,48.83,105.31,78.04,170.39,94.48,45.25,11.43,90.99,10.08,137.12,3.13ZM207.3,652.54c-30.22,20.56-56.97,42.62-79.32,69.73-4.54,5.5-8.69,11.57-11.78,17.97-11.28,23.37-6.69,39.57,16.36,51.68,37.8,19.86,78.57,19.12,119.57,14.65,7.07-.77,5.82-4.77,3.22-9.06-26.64-44.04-41.04-92.22-48.06-144.97ZM985.16,425.89c-7.21,0-14.42.21-21.62-.05-8.47-.31-9.88,2.74-6.36,10.26,19.07,40.72,30.07,83.63,33.73,128.4.8,9.81,3.34,13.86,12.52,6.2,14.73-12.29,30.09-23.87,44.3-36.73,14.99-13.56,28.29-28.77,36.25-47.82,10.2-24.4,5.38-37.49-18.27-48.98-25.59-12.43-53.45-9.45-80.56-11.29Z"/>
</svg>